<svg width="307" height="300" viewBox="0 0 307 300" fill="none" xmlns="http://www.w3.org/2000/svg">
<path d="M90.1074 0C98.3972 6.41944e-05 105.906 3.36099 111.343 8.78906C116.779 14.2219 120.143 21.722 120.143 30V69.998C120.143 86.3093 107.114 99.5775 90.8828 99.9883L89.332 100.008C73.1009 100.418 60.0715 113.687 60.0713 129.998V170.002C60.0715 186.572 73.518 200.002 90.1074 200.002C98.3972 200.002 105.906 203.358 111.343 208.791C116.779 214.219 120.143 221.719 120.143 230.002V270C120.143 286.57 106.697 300 90.1074 300C73.5178 300 60.0713 286.57 60.0713 270V230.002C60.0713 221.719 56.707 214.219 51.2705 208.791C45.8341 203.358 38.3258 200.002 30.0361 200.002C13.4467 200.002 0.000215663 186.572 0 170.002V129.998C0.00021565 113.428 13.4467 99.998 30.0361 99.998C46.6255 99.9978 60.0713 86.5682 60.0713 69.998V30C60.0713 13.4297 73.5178 0 90.1074 0ZM216.251 0C224.541 0.000107765 232.049 3.36117 237.485 8.78906C242.922 14.2219 246.286 21.7219 246.286 30V69.998C246.286 86.5684 259.733 99.998 276.322 99.998C284.612 99.9981 292.121 103.359 297.558 108.792C302.994 114.22 306.357 121.72 306.357 129.998V170.002C306.357 186.313 293.329 199.581 277.098 199.992L275.547 200.012C259.316 200.422 246.286 213.691 246.286 230.002V270C246.286 286.57 232.841 300 216.251 300C199.661 300 186.215 286.57 186.215 270V230.002C186.215 213.69 199.244 200.422 215.476 200.012L217.026 199.992C233.258 199.581 246.286 186.313 246.286 170.002V129.998C246.286 121.72 242.922 114.22 237.485 108.792C232.049 103.359 224.541 99.9982 216.251 99.998C199.661 99.998 186.215 86.5684 186.215 69.998V30C186.215 13.4297 199.661 0 216.251 0ZM153.179 99.998C169.767 99.9983 183.214 113.433 183.214 129.998V170.002C183.214 186.567 169.767 200.002 153.179 200.002C136.591 200.002 123.143 186.567 123.143 170.002V129.998C123.143 113.433 136.591 99.998 153.179 99.998Z" fill="#FF4405"/>
</svg>
