<svg width="20" height="20" viewBox="0 0 20 20" fill="none" xmlns="http://www.w3.org/2000/svg">
<g clip-path="url(#clip0_2086_17470)">
<path d="M12.0141 8.66653V11.3335C12.0141 12.4381 11.1203 13.3335 10.0175 13.3335C8.91482 13.3335 8.02108 14.2287 8.02108 15.3334V18C8.02108 19.1047 7.12728 20 6.02457 20C4.92182 20 4.02808 19.1047 4.02808 18V15.3334C4.02808 14.2287 4.92182 13.3335 6.02457 13.3335C7.12728 13.3335 8.02108 12.4381 8.02108 11.3335V8.66653C8.02108 8.11467 7.79748 7.61467 7.43608 7.2528C7.07475 6.8906 6.5756 6.66656 6.02457 6.66656C4.92182 6.66656 4.02808 5.77125 4.02808 4.66656V2C4.02808 0.895313 4.92182 0 6.02457 0C6.5756 0 7.07475 0.224063 7.43608 0.585937C7.79748 0.948127 8.02108 1.44812 8.02108 2V4.66656C8.02108 5.77125 8.91482 6.66656 10.0175 6.66656C10.5686 6.66656 11.0677 6.8906 11.4291 7.2528C11.7904 7.61467 12.0141 8.11467 12.0141 8.66653Z" fill="#2E90FA"/>
<path d="M20 8.66653V11.3335C20 12.4381 19.1062 13.3335 18.0035 13.3335C16.9008 13.3335 16.007 14.2287 16.007 15.3334V18C16.007 19.1047 15.1133 20 14.0105 20C12.9078 20 12.014 19.1047 12.014 18V15.3334C12.014 14.2287 12.9078 13.3335 14.0105 13.3335C15.1133 13.3335 16.007 12.4381 16.007 11.3335V8.66653C16.007 8.11467 15.7834 7.61467 15.422 7.2528C15.0607 6.8906 14.5616 6.66656 14.0105 6.66656C12.9078 6.66656 12.014 5.77125 12.014 4.66656V2C12.014 0.895313 12.9078 0 14.0105 0C14.5616 0 15.0607 0.224063 15.422 0.585937C15.7834 0.948127 16.007 1.44812 16.007 2V4.66656C16.007 5.77125 16.9008 6.66656 18.0035 6.66656C18.5546 6.66656 19.0537 6.8906 19.415 7.2528C19.7764 7.61467 20 8.11467 20 8.66653Z" fill="#2E90FA"/>
<path d="M3.99299 8.6665C3.99299 7.5621 3.09912 6.6665 1.99649 6.6665C0.893867 6.6665 0 7.5621 0 8.6665V11.3334C0 12.4378 0.893867 13.3334 1.99649 13.3334C3.09912 13.3334 3.99299 12.4378 3.99299 11.3334V8.6665Z" fill="#2E90FA"/>
</g>
<defs>
<clipPath id="clip0_2086_17470">
<rect width="20" height="20" fill="white"/>
</clipPath>
</defs>
</svg>
